<svg width="356" height="90" viewBox="0 0 356 90" fill="none" xmlns="http://www.w3.org/2000/svg">
<g filter="url(#filter0_d_241_243)">
<path d="M311.4 3.6001C321.341 3.60016 329.4 11.659 329.4 21.6001L329.4 47.228C329.4 49.99 328.776 52.6059 327.665 54.9448C329.156 58.2145 331.649 63.2496 334.195 66.5083C338.813 72.4179 348.739 79.0503 348.739 79.0503C339.727 76.9439 336.001 76.0748 329.416 72.6255L316.768 64.4126C315.073 64.9417 313.27 65.228 311.4 65.228H25.2C15.2588 65.228 7.19995 57.1691 7.19995 47.228V21.6001C7.2 11.659 15.2589 3.60013 25.2 3.6001L311.4 3.6001Z" fill="white"/>
</g>
<path d="M62.769 41.9382L63.889 37.7482H59.969L60.419 36.0482H64.349L65.119 33.1282H61.199L61.659 31.4382H65.579L66.619 27.5482H68.379L67.329 31.4382H70.379L71.419 27.5482H73.179L72.129 31.4382H76.049L75.599 33.1282H71.679L70.889 36.0482H74.809L74.359 37.7482H70.439L69.319 41.9382H67.569L68.679 37.7482H65.639L64.519 41.9382H62.769ZM66.099 36.0482H69.139L69.919 33.1282H66.879L66.099 36.0482ZM84.5656 42.2482C83.1323 42.2482 81.9156 41.9316 80.9156 41.2982C79.9156 40.6649 79.1523 39.7849 78.6256 38.6582C78.1056 37.5316 77.8456 36.2282 77.8456 34.7482C77.8456 33.2682 78.1056 31.9649 78.6256 30.8382C79.1523 29.7116 79.9156 28.8316 80.9156 28.1982C81.9156 27.5649 83.1323 27.2482 84.5656 27.2482C86.2323 27.2482 87.6023 27.6716 88.6756 28.5182C89.7556 29.3649 90.4989 30.5049 90.9056 31.9382L89.0956 32.4182C88.8023 31.3449 88.2789 30.4982 87.5256 29.8782C86.7723 29.2582 85.7856 28.9482 84.5656 28.9482C83.4923 28.9482 82.5989 29.1916 81.8856 29.6782C81.1723 30.1649 80.6356 30.8449 80.2756 31.7182C79.9156 32.5849 79.7323 33.5949 79.7256 34.7482C79.7189 35.8949 79.8956 36.9049 80.2556 37.7782C80.6156 38.6449 81.1556 39.3249 81.8756 39.8182C82.5956 40.3049 83.4923 40.5482 84.5656 40.5482C85.7856 40.5482 86.7723 40.2382 87.5256 39.6182C88.2789 38.9916 88.8023 38.1449 89.0956 37.0782L90.9056 37.5582C90.4989 38.9849 89.7556 40.1249 88.6756 40.9782C87.6023 41.8249 86.2323 42.2482 84.5656 42.2482ZM96.1687 42.2482C95.3621 42.2482 94.6854 42.1016 94.1387 41.8082C93.5987 41.5082 93.1887 41.1149 92.9087 40.6282C92.6354 40.1416 92.4987 39.6082 92.4987 39.0282C92.4987 38.4616 92.6054 37.9716 92.8187 37.5582C93.0387 37.1382 93.3454 36.7916 93.7387 36.5182C94.1321 36.2382 94.6021 36.0182 95.1487 35.8582C95.6621 35.7182 96.2354 35.5982 96.8687 35.4982C97.5087 35.3916 98.1554 35.2949 98.8087 35.2082C99.4621 35.1216 100.072 35.0382 100.639 34.9582L99.9987 35.3282C100.019 34.3682 99.8254 33.6582 99.4187 33.1982C99.0187 32.7382 98.3254 32.5082 97.3387 32.5082C96.6854 32.5082 96.1121 32.6582 95.6187 32.9582C95.1321 33.2516 94.7887 33.7316 94.5887 34.3982L92.8987 33.8882C93.1587 32.9416 93.6621 32.1982 94.4087 31.6582C95.1554 31.1182 96.1387 30.8482 97.3587 30.8482C98.3387 30.8482 99.1787 31.0249 99.8787 31.3782C100.585 31.7249 101.092 32.2516 101.399 32.9582C101.552 33.2916 101.649 33.6549 101.689 34.0482C101.729 34.4349 101.749 34.8416 101.749 35.2682V41.9482H100.169V39.3582L100.539 39.5982C100.132 40.4716 99.5621 41.1316 98.8287 41.5782C98.1021 42.0249 97.2154 42.2482 96.1687 42.2482ZM96.4387 40.7582C97.0787 40.7582 97.6321 40.6449 98.0987 40.4182C98.5721 40.1849 98.9521 39.8816 99.2387 39.5082C99.5254 39.1282 99.7121 38.7149 99.7987 38.2682C99.8987 37.9349 99.9521 37.5649 99.9587 37.1582C99.9721 36.7449 99.9787 36.4282 99.9787 36.2082L100.599 36.4782C100.019 36.5582 99.4487 36.6349 98.8887 36.7082C98.3287 36.7816 97.7987 36.8616 97.2987 36.9482C96.7987 37.0282 96.3487 37.1249 95.9487 37.2382C95.6554 37.3316 95.3787 37.4516 95.1187 37.5982C94.8654 37.7449 94.6587 37.9349 94.4987 38.1682C94.3454 38.3949 94.2687 38.6782 94.2687 39.0182C94.2687 39.3116 94.3421 39.5916 94.4887 39.8582C94.6421 40.1249 94.8754 40.3416 95.1887 40.5082C95.5087 40.6749 95.9254 40.7582 96.4387 40.7582ZM104.349 41.9482V31.1482H105.939V33.7582L105.679 33.4182C105.805 33.0849 105.969 32.7782 106.169 32.4982C106.375 32.2182 106.605 31.9882 106.859 31.8082C107.139 31.5816 107.455 31.4082 107.809 31.2882C108.162 31.1682 108.522 31.0982 108.889 31.0782C109.255 31.0516 109.599 31.0749 109.919 31.1482V32.8182C109.545 32.7182 109.135 32.6916 108.689 32.7382C108.242 32.7849 107.829 32.9482 107.449 33.2282C107.102 33.4749 106.832 33.7749 106.639 34.1282C106.452 34.4816 106.322 34.8649 106.249 35.2782C106.175 35.6849 106.139 36.1016 106.139 36.5282V41.9482H104.349ZM116.294 42.2482C115.234 42.2482 114.308 42.0149 113.514 41.5482C112.728 41.0749 112.114 40.4182 111.674 39.5782C111.234 38.7316 111.014 37.7449 111.014 36.6182C111.014 35.4382 111.231 34.4182 111.664 33.5582C112.098 32.6916 112.701 32.0249 113.474 31.5582C114.254 31.0849 115.168 30.8482 116.214 30.8482C117.301 30.8482 118.224 31.0982 118.984 31.5982C119.751 32.0982 120.324 32.8116 120.704 33.7382C121.091 34.6649 121.258 35.7682 121.204 37.0482H119.404V36.4082C119.384 35.0816 119.114 34.0916 118.594 33.4382C118.074 32.7782 117.301 32.4482 116.274 32.4482C115.174 32.4482 114.338 32.8016 113.764 33.5082C113.191 34.2149 112.904 35.2282 112.904 36.5482C112.904 37.8216 113.191 38.8082 113.764 39.5082C114.338 40.2082 115.154 40.5582 116.214 40.5582C116.928 40.5582 117.548 40.3949 118.074 40.0682C118.601 39.7416 119.014 39.2716 119.314 38.6582L121.024 39.2482C120.604 40.2016 119.971 40.9416 119.124 41.4682C118.284 41.9882 117.341 42.2482 116.294 42.2482ZM112.304 37.0482V35.6182H120.284V37.0482H112.304ZM128.111 42.2482C127.051 42.2482 126.124 42.0149 125.331 41.5482C124.544 41.0749 123.931 40.4182 123.491 39.5782C123.051 38.7316 122.831 37.7449 122.831 36.6182C122.831 35.4382 123.047 34.4182 123.481 33.5582C123.914 32.6916 124.517 32.0249 125.291 31.5582C126.071 31.0849 126.984 30.8482 128.031 30.8482C129.117 30.8482 130.041 31.0982 130.801 31.5982C131.567 32.0982 132.141 32.8116 132.521 33.7382C132.907 34.6649 133.074 35.7682 133.021 37.0482H131.221V36.4082C131.201 35.0816 130.931 34.0916 130.411 33.4382C129.891 32.7782 129.117 32.4482 128.091 32.4482C126.991 32.4482 126.154 32.8016 125.581 33.5082C125.007 34.2149 124.721 35.2282 124.721 36.5482C124.721 37.8216 125.007 38.8082 125.581 39.5082C126.154 40.2082 126.971 40.5582 128.031 40.5582C128.744 40.5582 129.364 40.3949 129.891 40.0682C130.417 39.7416 130.831 39.2716 131.131 38.6582L132.841 39.2482C132.421 40.2016 131.787 40.9416 130.941 41.4682C130.101 41.9882 129.157 42.2482 128.111 42.2482ZM124.121 37.0482V35.6182H132.101V37.0482H124.121ZM135.247 41.9482V31.1482H136.837V33.7582L136.577 33.4182C136.704 33.0849 136.867 32.7782 137.067 32.4982C137.274 32.2182 137.504 31.9882 137.757 31.8082C138.037 31.5816 138.354 31.4082 138.707 31.2882C139.061 31.1682 139.421 31.0982 139.787 31.0782C140.154 31.0516 140.497 31.0749 140.817 31.1482V32.8182C140.444 32.7182 140.034 32.6916 139.587 32.7382C139.141 32.7849 138.727 32.9482 138.347 33.2282C138.001 33.4749 137.731 33.7749 137.537 34.1282C137.351 34.4816 137.221 34.8649 137.147 35.2782C137.074 35.6849 137.037 36.1016 137.037 36.5282V41.9482H135.247ZM151.312 42.2482C150.239 42.2482 149.312 42.0049 148.532 41.5182C147.759 41.0316 147.162 40.3582 146.742 39.4982C146.322 38.6382 146.112 37.6516 146.112 36.5382C146.112 35.4049 146.325 34.4116 146.752 33.5582C147.179 32.7049 147.782 32.0416 148.562 31.5682C149.342 31.0882 150.259 30.8482 151.312 30.8482C152.392 30.8482 153.322 31.0916 154.102 31.5782C154.882 32.0582 155.479 32.7282 155.892 33.5882C156.312 34.4416 156.522 35.4249 156.522 36.5382C156.522 37.6649 156.312 38.6582 155.892 39.5182C155.472 40.3716 154.872 41.0416 154.092 41.5282C153.312 42.0082 152.385 42.2482 151.312 42.2482ZM151.312 40.5582C152.432 40.5582 153.265 40.1849 153.812 39.4382C154.359 38.6916 154.632 37.7249 154.632 36.5382C154.632 35.3182 154.355 34.3482 153.802 33.6282C153.249 32.9016 152.419 32.5382 151.312 32.5382C150.559 32.5382 149.939 32.7082 149.452 33.0482C148.965 33.3882 148.602 33.8582 148.362 34.4582C148.122 35.0582 148.002 35.7516 148.002 36.5382C148.002 37.7516 148.282 38.7249 148.842 39.4582C149.402 40.1916 150.225 40.5582 151.312 40.5582ZM163.684 42.2482C162.67 42.2482 161.817 41.9982 161.124 41.4982C160.43 40.9916 159.904 40.3082 159.544 39.4482C159.19 38.5816 159.014 37.6116 159.014 36.5382C159.014 35.4516 159.19 34.4782 159.544 33.6182C159.904 32.7582 160.43 32.0816 161.124 31.5882C161.824 31.0949 162.68 30.8482 163.694 30.8482C164.694 30.8482 165.554 31.0982 166.274 31.5982C167 32.0916 167.557 32.7682 167.944 33.6282C168.33 34.4882 168.524 35.4582 168.524 36.5382C168.524 37.6182 168.33 38.5882 167.944 39.4482C167.557 40.3082 167 40.9916 166.274 41.4982C165.554 41.9982 164.69 42.2482 163.684 42.2482ZM158.714 46.7482V31.1482H160.304V39.0982H160.504V46.7482H158.714ZM163.464 40.6182C164.177 40.6182 164.767 40.4382 165.234 40.0782C165.7 39.7182 166.05 39.2316 166.284 38.6182C166.517 37.9982 166.634 37.3049 166.634 36.5382C166.634 35.7782 166.517 35.0916 166.284 34.4782C166.057 33.8649 165.704 33.3782 165.224 33.0182C164.75 32.6582 164.147 32.4782 163.414 32.4782C162.714 32.4782 162.134 32.6516 161.674 32.9982C161.214 33.3382 160.87 33.8149 160.644 34.4282C160.417 35.0349 160.304 35.7382 160.304 36.5382C160.304 37.3249 160.414 38.0282 160.634 38.6482C160.86 39.2616 161.207 39.7449 161.674 40.0982C162.14 40.4449 162.737 40.6182 163.464 40.6182ZM175.676 42.2482C174.663 42.2482 173.809 41.9982 173.116 41.4982C172.423 40.9916 171.896 40.3082 171.536 39.4482C171.183 38.5816 171.006 37.6116 171.006 36.5382C171.006 35.4516 171.183 34.4782 171.536 33.6182C171.896 32.7582 172.423 32.0816 173.116 31.5882C173.816 31.0949 174.673 30.8482 175.686 30.8482C176.686 30.8482 177.546 31.0982 178.266 31.5982C178.993 32.0916 179.549 32.7682 179.936 33.6282C180.323 34.4882 180.516 35.4582 180.516 36.5382C180.516 37.6182 180.323 38.5882 179.936 39.4482C179.549 40.3082 178.993 40.9916 178.266 41.4982C177.546 41.9982 176.683 42.2482 175.676 42.2482ZM170.706 46.7482V31.1482H172.296V39.0982H172.496V46.7482H170.706ZM175.456 40.6182C176.169 40.6182 176.759 40.4382 177.226 40.0782C177.693 39.7182 178.043 39.2316 178.276 38.6182C178.509 37.9982 178.626 37.3049 178.626 36.5382C178.626 35.7782 178.509 35.0916 178.276 34.4782C178.049 33.8649 177.696 33.3782 177.216 33.0182C176.743 32.6582 176.139 32.4782 175.406 32.4782C174.706 32.4782 174.126 32.6516 173.666 32.9982C173.206 33.3382 172.863 33.8149 172.636 34.4282C172.409 35.0349 172.296 35.7382 172.296 36.5382C172.296 37.3249 172.406 38.0282 172.626 38.6482C172.853 39.2616 173.199 39.7449 173.666 40.0982C174.133 40.4449 174.729 40.6182 175.456 40.6182ZM187.308 42.2482C186.235 42.2482 185.308 42.0049 184.528 41.5182C183.755 41.0316 183.158 40.3582 182.738 39.4982C182.318 38.6382 182.108 37.6516 182.108 36.5382C182.108 35.4049 182.321 34.4116 182.748 33.5582C183.175 32.7049 183.778 32.0416 184.558 31.5682C185.338 31.0882 186.255 30.8482 187.308 30.8482C188.388 30.8482 189.318 31.0916 190.098 31.5782C190.878 32.0582 191.475 32.7282 191.888 33.5882C192.308 34.4416 192.518 35.4249 192.518 36.5382C192.518 37.6649 192.308 38.6582 191.888 39.5182C191.468 40.3716 190.868 41.0416 190.088 41.5282C189.308 42.0082 188.381 42.2482 187.308 42.2482ZM187.308 40.5582C188.428 40.5582 189.261 40.1849 189.808 39.4382C190.355 38.6916 190.628 37.7249 190.628 36.5382C190.628 35.3182 190.351 34.3482 189.798 33.6282C189.245 32.9016 188.415 32.5382 187.308 32.5382C186.555 32.5382 185.935 32.7082 185.448 33.0482C184.961 33.3882 184.598 33.8582 184.358 34.4582C184.118 35.0582 183.998 35.7516 183.998 36.5382C183.998 37.7516 184.278 38.7249 184.838 39.4582C185.398 40.1916 186.221 40.5582 187.308 40.5582ZM194.72 41.9482V31.1482H196.31V33.7582L196.05 33.4182C196.176 33.0849 196.34 32.7782 196.54 32.4982C196.746 32.2182 196.976 31.9882 197.23 31.8082C197.51 31.5816 197.826 31.4082 198.18 31.2882C198.533 31.1682 198.893 31.0982 199.26 31.0782C199.626 31.0516 199.97 31.0749 200.29 31.1482V32.8182C199.916 32.7182 199.506 32.6916 199.06 32.7382C198.613 32.7849 198.2 32.9482 197.82 33.2282C197.473 33.4749 197.203 33.7749 197.01 34.1282C196.823 34.4816 196.693 34.8649 196.62 35.2782C196.546 35.6849 196.51 36.1016 196.51 36.5282V41.9482H194.72ZM208.211 41.9482C207.571 42.0749 206.937 42.1249 206.311 42.0982C205.691 42.0782 205.137 41.9549 204.651 41.7282C204.164 41.4949 203.794 41.1349 203.541 40.6482C203.327 40.2216 203.211 39.7916 203.191 39.3582C203.177 38.9182 203.171 38.4216 203.171 37.8682V28.1482H204.951V37.7882C204.951 38.2282 204.954 38.6049 204.961 38.9182C204.974 39.2316 205.044 39.5016 205.171 39.7282C205.411 40.1549 205.791 40.4049 206.311 40.4782C206.837 40.5516 207.471 40.5316 208.211 40.4182V41.9482ZM200.981 32.6182V31.1482H208.211V32.6182H200.981ZM214.503 42.2282C213.81 42.2282 213.213 42.1182 212.713 41.8982C212.22 41.6782 211.81 41.3849 211.483 41.0182C211.157 40.6516 210.9 40.2449 210.713 39.7982C210.527 39.3516 210.393 38.8949 210.313 38.4282C210.24 37.9616 210.203 37.5249 210.203 37.1182V31.1482H212.003V36.5582C212.003 37.0649 212.05 37.5549 212.143 38.0282C212.237 38.5016 212.393 38.9282 212.613 39.3082C212.84 39.6882 213.14 39.9882 213.513 40.2082C213.893 40.4282 214.367 40.5382 214.933 40.5382C215.38 40.5382 215.787 40.4616 216.153 40.3082C216.52 40.1549 216.833 39.9282 217.093 39.6282C217.353 39.3216 217.553 38.9349 217.693 38.4682C217.833 38.0016 217.903 37.4582 217.903 36.8382L219.073 37.1982C219.073 38.2382 218.883 39.1349 218.503 39.8882C218.13 40.6416 217.6 41.2216 216.913 41.6282C216.233 42.0282 215.43 42.2282 214.503 42.2282ZM218.103 41.9482V39.0582H217.903V31.1482H219.693V41.9482H218.103ZM230.183 41.9482V36.5382C230.183 36.0249 230.137 35.5316 230.043 35.0582C229.957 34.5849 229.8 34.1616 229.573 33.7882C229.353 33.4082 229.053 33.1082 228.673 32.8882C228.3 32.6682 227.827 32.5582 227.253 32.5582C226.807 32.5582 226.4 32.6349 226.033 32.7882C225.673 32.9349 225.363 33.1616 225.103 33.4682C224.843 33.7749 224.64 34.1616 224.493 34.6282C224.353 35.0882 224.283 35.6316 224.283 36.2582L223.113 35.8982C223.113 34.8516 223.3 33.9549 223.673 33.2082C224.053 32.4549 224.583 31.8782 225.263 31.4782C225.95 31.0716 226.757 30.8682 227.683 30.8682C228.383 30.8682 228.98 30.9782 229.473 31.1982C229.967 31.4182 230.377 31.7116 230.703 32.0782C231.03 32.4382 231.287 32.8449 231.473 33.2982C231.66 33.7449 231.79 34.2016 231.863 34.6682C231.943 35.1282 231.983 35.5649 231.983 35.9782V41.9482H230.183ZM222.483 41.9482V31.1482H224.083V34.0382H224.283V41.9482H222.483ZM234.783 29.2382V27.3982H236.563V29.2382H234.783ZM234.783 41.9482V31.1482H236.563V41.9482H234.783ZM245.594 41.9482C244.954 42.0749 244.32 42.1249 243.694 42.0982C243.074 42.0782 242.52 41.9549 242.034 41.7282C241.547 41.4949 241.177 41.1349 240.924 40.6482C240.71 40.2216 240.594 39.7916 240.574 39.3582C240.56 38.9182 240.554 38.4216 240.554 37.8682V28.1482H242.334V37.7882C242.334 38.2282 242.337 38.6049 242.344 38.9182C242.357 39.2316 242.427 39.5016 242.554 39.7282C242.794 40.1549 243.174 40.4049 243.694 40.4782C244.22 40.5516 244.854 40.5316 245.594 40.4182V41.9482ZM238.364 32.6182V31.1482H245.594V32.6182H238.364ZM247.986 29.2382V27.3982H249.766V29.2382H247.986ZM247.986 41.9482V31.1482H249.766V41.9482H247.986ZM257.447 42.2482C256.387 42.2482 255.46 42.0149 254.667 41.5482C253.88 41.0749 253.267 40.4182 252.827 39.5782C252.387 38.7316 252.167 37.7449 252.167 36.6182C252.167 35.4382 252.383 34.4182 252.817 33.5582C253.25 32.6916 253.853 32.0249 254.627 31.5582C255.407 31.0849 256.32 30.8482 257.367 30.8482C258.453 30.8482 259.377 31.0982 260.137 31.5982C260.903 32.0982 261.477 32.8116 261.857 33.7382C262.243 34.6649 262.41 35.7682 262.357 37.0482H260.557V36.4082C260.537 35.0816 260.267 34.0916 259.747 33.4382C259.227 32.7782 258.453 32.4482 257.427 32.4482C256.327 32.4482 255.49 32.8016 254.917 33.5082C254.343 34.2149 254.057 35.2282 254.057 36.5482C254.057 37.8216 254.343 38.8082 254.917 39.5082C255.49 40.2082 256.307 40.5582 257.367 40.5582C258.08 40.5582 258.7 40.3949 259.227 40.0682C259.753 39.7416 260.167 39.2716 260.467 38.6582L262.177 39.2482C261.757 40.2016 261.123 40.9416 260.277 41.4682C259.437 41.9882 258.493 42.2482 257.447 42.2482ZM253.457 37.0482V35.6182H261.437V37.0482H253.457ZM268.663 42.2382C267.376 42.2382 266.32 41.9582 265.493 41.3982C264.673 40.8316 264.17 40.0416 263.983 39.0282L265.803 38.7382C265.95 39.3249 266.286 39.7916 266.813 40.1382C267.34 40.4782 267.993 40.6482 268.773 40.6482C269.513 40.6482 270.093 40.4949 270.513 40.1882C270.933 39.8816 271.143 39.4649 271.143 38.9382C271.143 38.6316 271.073 38.3849 270.933 38.1982C270.793 38.0049 270.503 37.8249 270.063 37.6582C269.63 37.4916 268.973 37.2916 268.093 37.0582C267.14 36.8049 266.39 36.5416 265.843 36.2682C265.296 35.9949 264.906 35.6782 264.673 35.3182C264.44 34.9582 264.323 34.5216 264.323 34.0082C264.323 33.3749 264.496 32.8216 264.843 32.3482C265.19 31.8682 265.673 31.4982 266.293 31.2382C266.92 30.9782 267.646 30.8482 268.473 30.8482C269.293 30.8482 270.026 30.9782 270.673 31.2382C271.32 31.4982 271.84 31.8682 272.233 32.3482C272.633 32.8216 272.87 33.3749 272.943 34.0082L271.123 34.3382C271.036 33.7582 270.756 33.3016 270.283 32.9682C269.816 32.6349 269.213 32.4582 268.473 32.4382C267.773 32.4116 267.203 32.5349 266.763 32.8082C266.33 33.0816 266.113 33.4516 266.113 33.9182C266.113 34.1782 266.193 34.4016 266.353 34.5882C266.52 34.7749 266.823 34.9516 267.263 35.1182C267.71 35.2849 268.356 35.4749 269.203 35.6882C270.156 35.9282 270.906 36.1916 271.453 36.4782C272.006 36.7582 272.4 37.0916 272.633 37.4782C272.866 37.8582 272.983 38.3282 272.983 38.8882C272.983 39.9282 272.6 40.7482 271.833 41.3482C271.066 41.9416 270.01 42.2382 268.663 42.2382Z" fill="black"/>
<defs>
<filter id="filter0_d_241_243" x="-4.86374e-05" y="9.77516e-05" width="355.939" height="89.8502" filterUnits="userSpaceOnUse" color-interpolation-filters="sRGB">
<feFlood flood-opacity="0" result="BackgroundImageFix"/>
<feColorMatrix in="SourceAlpha" type="matrix" values="0 0 0 0 0 0 0 0 0 0 0 0 0 0 0 0 0 0 127 0" result="hardAlpha"/>
<feOffset dy="3.6"/>
<feGaussianBlur stdDeviation="3.6"/>
<feComposite in2="hardAlpha" operator="out"/>
<feColorMatrix type="matrix" values="0 0 0 0 0.145246 0 0 0 0 0.370876 0 0 0 0 0.568303 0 0 0 0.4 0"/>
<feBlend mode="normal" in2="BackgroundImageFix" result="effect1_dropShadow_241_243"/>
<feBlend mode="normal" in="SourceGraphic" in2="effect1_dropShadow_241_243" result="shape"/>
</filter>
</defs>
</svg>
