<svg width="199" height="71" viewBox="0 0 199 71" fill="none" xmlns="http://www.w3.org/2000/svg">
<g filter="url(#filter0_d_238_112)">
<rect x="7.19995" y="3.6001" width="184.6" height="55.8" rx="18" fill="#EB7128" shape-rendering="crispEdges"/>
<path d="M40 38.99L41.12 34.8H37.2L37.65 33.1H41.58L42.35 30.18H38.43L38.89 28.49H42.81L43.85 24.6H45.61L44.56 28.49H47.61L48.65 24.6H50.41L49.36 28.49H53.28L52.83 30.18H48.91L48.12 33.1H52.04L51.59 34.8H47.67L46.55 38.99H44.8L45.91 34.8H42.87L41.75 38.99H40ZM43.33 33.1H46.37L47.15 30.18H44.11L43.33 33.1ZM60.4266 39.3C59.3332 39.3 58.4032 39.0567 57.6366 38.57C56.8766 38.0767 56.2966 37.4 55.8966 36.54C55.4966 35.68 55.2899 34.7 55.2766 33.6C55.2899 32.4733 55.4999 31.4833 55.9066 30.63C56.3199 29.77 56.9099 29.1 57.6766 28.62C58.4432 28.14 59.3666 27.9 60.4466 27.9C61.5866 27.9 62.5666 28.18 63.3866 28.74C64.2132 29.3 64.7666 30.0667 65.0466 31.04L63.2866 31.57C63.0599 30.9433 62.6899 30.4567 62.1766 30.11C61.6699 29.7633 61.0866 29.59 60.4266 29.59C59.6866 29.59 59.0766 29.7633 58.5966 30.11C58.1166 30.45 57.7599 30.9233 57.5266 31.53C57.2932 32.13 57.1732 32.82 57.1666 33.6C57.1799 34.8 57.4566 35.77 57.9966 36.51C58.5432 37.2433 59.3532 37.61 60.4266 37.61C61.1332 37.61 61.7199 37.45 62.1866 37.13C62.6532 36.8033 63.0066 36.3333 63.2466 35.72L65.0466 36.19C64.6732 37.1967 64.0899 37.9667 63.2966 38.5C62.5032 39.0333 61.5466 39.3 60.4266 39.3ZM66.9945 39V24.3H68.7745V39H66.9945ZM75.875 39.28C75.1817 39.28 74.585 39.17 74.085 38.95C73.5917 38.73 73.1817 38.4367 72.855 38.07C72.5283 37.7033 72.2717 37.2967 72.085 36.85C71.8983 36.4033 71.765 35.9467 71.685 35.48C71.6117 35.0133 71.575 34.5767 71.575 34.17V28.2H73.375V33.61C73.375 34.1167 73.4217 34.6067 73.515 35.08C73.6083 35.5533 73.765 35.98 73.985 36.36C74.2117 36.74 74.5117 37.04 74.885 37.26C75.265 37.48 75.7383 37.59 76.305 37.59C76.7517 37.59 77.1583 37.5133 77.525 37.36C77.8917 37.2067 78.205 36.98 78.465 36.68C78.725 36.3733 78.925 35.9867 79.065 35.52C79.205 35.0533 79.275 34.51 79.275 33.89L80.445 34.25C80.445 35.29 80.255 36.1867 79.875 36.94C79.5017 37.6933 78.9717 38.2733 78.285 38.68C77.605 39.08 76.8017 39.28 75.875 39.28ZM79.475 39V36.11H79.275V28.2H81.065V39H79.475ZM88.8248 39.3C87.8115 39.3 86.9582 39.05 86.2648 38.55C85.5715 38.0433 85.0448 37.36 84.6848 36.5C84.3315 35.6333 84.1548 34.6633 84.1548 33.59C84.1548 32.5033 84.3315 31.53 84.6848 30.67C85.0448 29.81 85.5715 29.1333 86.2648 28.64C86.9648 28.1467 87.8215 27.9 88.8348 27.9C89.8348 27.9 90.6948 28.15 91.4148 28.65C92.1415 29.1433 92.6982 29.82 93.0848 30.68C93.4715 31.54 93.6648 32.51 93.6648 33.59C93.6648 34.67 93.4715 35.64 93.0848 36.5C92.6982 37.36 92.1415 38.0433 91.4148 38.55C90.6948 39.05 89.8315 39.3 88.8248 39.3ZM83.8548 39V24.6H85.6448V31.05H85.4448V39H83.8548ZM88.6048 37.67C89.3182 37.67 89.9082 37.49 90.3748 37.13C90.8415 36.77 91.1915 36.2833 91.4248 35.67C91.6582 35.05 91.7748 34.3567 91.7748 33.59C91.7748 32.83 91.6582 32.1433 91.4248 31.53C91.1982 30.9167 90.8448 30.43 90.3648 30.07C89.8915 29.71 89.2882 29.53 88.5548 29.53C87.8548 29.53 87.2748 29.7033 86.8148 30.05C86.3548 30.39 86.0115 30.8667 85.7848 31.48C85.5582 32.0867 85.4448 32.79 85.4448 33.59C85.4448 34.3767 85.5548 35.08 85.7748 35.7C86.0015 36.3133 86.3482 36.7967 86.8148 37.15C87.2815 37.4967 87.8782 37.67 88.6048 37.67ZM104.541 39.3C103.481 39.3 102.554 39.0667 101.761 38.6C100.974 38.1267 100.361 37.47 99.9209 36.63C99.4809 35.7833 99.2609 34.7967 99.2609 33.67C99.2609 32.49 99.4776 31.47 99.9109 30.61C100.344 29.7433 100.948 29.0767 101.721 28.61C102.501 28.1367 103.414 27.9 104.461 27.9C105.548 27.9 106.471 28.15 107.231 28.65C107.998 29.15 108.571 29.8633 108.951 30.79C109.338 31.7167 109.504 32.82 109.451 34.1H107.651V33.46C107.631 32.1333 107.361 31.1433 106.841 30.49C106.321 29.83 105.548 29.5 104.521 29.5C103.421 29.5 102.584 29.8533 102.011 30.56C101.438 31.2667 101.151 32.28 101.151 33.6C101.151 34.8733 101.438 35.86 102.011 36.56C102.584 37.26 103.401 37.61 104.461 37.61C105.174 37.61 105.794 37.4467 106.321 37.12C106.848 36.7933 107.261 36.3233 107.561 35.71L109.271 36.3C108.851 37.2533 108.218 37.9933 107.371 38.52C106.531 39.04 105.588 39.3 104.541 39.3ZM100.551 34.1V32.67H108.531V34.1H100.551ZM114.207 39L110.287 28.2H112.087L115.117 36.73L118.137 28.2H119.947L116.027 39H114.207ZM126.045 39.3C124.985 39.3 124.058 39.0667 123.265 38.6C122.478 38.1267 121.865 37.47 121.425 36.63C120.985 35.7833 120.765 34.7967 120.765 33.67C120.765 32.49 120.982 31.47 121.415 30.61C121.848 29.7433 122.452 29.0767 123.225 28.61C124.005 28.1367 124.918 27.9 125.965 27.9C127.052 27.9 127.975 28.15 128.735 28.65C129.502 29.15 130.075 29.8633 130.455 30.79C130.842 31.7167 131.008 32.82 130.955 34.1H129.155V33.46C129.135 32.1333 128.865 31.1433 128.345 30.49C127.825 29.83 127.052 29.5 126.025 29.5C124.925 29.5 124.088 29.8533 123.515 30.56C122.942 31.2667 122.655 32.28 122.655 33.6C122.655 34.8733 122.942 35.86 123.515 36.56C124.088 37.26 124.905 37.61 125.965 37.61C126.678 37.61 127.298 37.4467 127.825 37.12C128.352 36.7933 128.765 36.3233 129.065 35.71L130.775 36.3C130.355 37.2533 129.722 37.9933 128.875 38.52C128.035 39.04 127.092 39.3 126.045 39.3ZM122.055 34.1V32.67H130.035V34.1H122.055ZM140.578 39V33.59C140.578 33.0767 140.532 32.5833 140.438 32.11C140.352 31.6367 140.195 31.2133 139.968 30.84C139.748 30.46 139.448 30.16 139.068 29.94C138.695 29.72 138.222 29.61 137.648 29.61C137.202 29.61 136.795 29.6867 136.428 29.84C136.068 29.9867 135.758 30.2133 135.498 30.52C135.238 30.8267 135.035 31.2133 134.888 31.68C134.748 32.14 134.678 32.6833 134.678 33.31L133.508 32.95C133.508 31.9033 133.695 31.0067 134.068 30.26C134.448 29.5067 134.978 28.93 135.658 28.53C136.345 28.1233 137.152 27.92 138.078 27.92C138.778 27.92 139.375 28.03 139.868 28.25C140.362 28.47 140.772 28.7633 141.098 29.13C141.425 29.49 141.682 29.8967 141.868 30.35C142.055 30.7967 142.185 31.2533 142.258 31.72C142.338 32.18 142.378 32.6167 142.378 33.03V39H140.578ZM132.878 39V28.2H134.478V31.09H134.678V39H132.878ZM151.008 39C150.368 39.1267 149.735 39.1767 149.108 39.15C148.488 39.13 147.935 39.0067 147.448 38.78C146.961 38.5467 146.591 38.1867 146.338 37.7C146.125 37.2733 146.008 36.8433 145.988 36.41C145.975 35.97 145.968 35.4733 145.968 34.92V25.2H147.748V34.84C147.748 35.28 147.751 35.6567 147.758 35.97C147.771 36.2833 147.841 36.5533 147.968 36.78C148.208 37.2067 148.588 37.4567 149.108 37.53C149.635 37.6033 150.268 37.5833 151.008 37.47V39ZM143.778 29.67V28.2H151.008V29.67H143.778ZM157.281 39.29C155.994 39.29 154.937 39.01 154.111 38.45C153.291 37.8833 152.787 37.0933 152.601 36.08L154.421 35.79C154.567 36.3767 154.904 36.8433 155.431 37.19C155.957 37.53 156.611 37.7 157.391 37.7C158.131 37.7 158.711 37.5467 159.131 37.24C159.551 36.9333 159.761 36.5167 159.761 35.99C159.761 35.6833 159.691 35.4367 159.551 35.25C159.411 35.0567 159.121 34.8767 158.681 34.71C158.247 34.5433 157.591 34.3433 156.711 34.11C155.757 33.8567 155.007 33.5933 154.461 33.32C153.914 33.0467 153.524 32.73 153.291 32.37C153.057 32.01 152.941 31.5733 152.941 31.06C152.941 30.4267 153.114 29.8733 153.461 29.4C153.807 28.92 154.291 28.55 154.911 28.29C155.537 28.03 156.264 27.9 157.091 27.9C157.911 27.9 158.644 28.03 159.291 28.29C159.937 28.55 160.457 28.92 160.851 29.4C161.251 29.8733 161.487 30.4267 161.561 31.06L159.741 31.39C159.654 30.81 159.374 30.3533 158.901 30.02C158.434 29.6867 157.831 29.51 157.091 29.49C156.391 29.4633 155.821 29.5867 155.381 29.86C154.947 30.1333 154.731 30.5033 154.731 30.97C154.731 31.23 154.811 31.4533 154.971 31.64C155.137 31.8267 155.441 32.0033 155.881 32.17C156.327 32.3367 156.974 32.5267 157.821 32.74C158.774 32.98 159.524 33.2433 160.071 33.53C160.624 33.81 161.017 34.1433 161.251 34.53C161.484 34.91 161.601 35.38 161.601 35.94C161.601 36.98 161.217 37.8 160.451 38.4C159.684 38.9933 158.627 39.29 157.281 39.29Z" fill="#F8FAFD"/>
</g>
<defs>
<filter id="filter0_d_238_112" x="-4.86374e-05" y="9.77516e-05" width="199" height="70.1998" filterUnits="userSpaceOnUse" color-interpolation-filters="sRGB">
<feFlood flood-opacity="0" result="BackgroundImageFix"/>
<feColorMatrix in="SourceAlpha" type="matrix" values="0 0 0 0 0 0 0 0 0 0 0 0 0 0 0 0 0 0 127 0" result="hardAlpha"/>
<feOffset dy="3.6"/>
<feGaussianBlur stdDeviation="3.6"/>
<feComposite in2="hardAlpha" operator="out"/>
<feColorMatrix type="matrix" values="0 0 0 0 0.145246 0 0 0 0 0.370876 0 0 0 0 0.568303 0 0 0 0.4 0"/>
<feBlend mode="normal" in2="BackgroundImageFix" result="effect1_dropShadow_238_112"/>
<feBlend mode="normal" in="SourceGraphic" in2="effect1_dropShadow_238_112" result="shape"/>
</filter>
</defs>
</svg>
