<svg width="231" height="106" viewBox="0 0 231 106" fill="none" xmlns="http://www.w3.org/2000/svg">
<g filter="url(#filter0_d_238_71)">
<path d="M210.6 74.7007C217.559 74.7008 223.2 79.1326 223.2 84.6001C223.2 90.0676 217.559 94.5003 210.6 94.5005C203.642 94.5005 198 90.0677 198 84.6001C198 79.1325 203.642 74.7007 210.6 74.7007ZM163.8 3.6001C170.336 3.6001 176.016 6.20705 178.893 10.0366C180.792 8.80725 183.019 8.1001 185.4 8.1001C192.359 8.10021 198 14.1444 198 21.6001C198 25.4432 196.498 28.9081 194.093 31.3667C198.99 33.2178 202.5 38.2193 202.5 44.1001C202.5 49.3237 199.73 53.8534 195.679 56.0981C197.139 58.3016 198 60.9924 198 63.8999C198 71.3557 192.359 77.3998 185.4 77.3999C182.822 77.3999 180.425 76.5689 178.428 75.145C175.43 78.655 170 81.0005 163.8 81.0005C157.753 81.0004 152.441 78.77 149.4 75.4048C146.36 78.7702 141.046 81.0005 135 81.0005C128.954 81.0004 123.64 78.7709 120.599 75.4058C117.559 78.7706 112.246 81.0005 106.2 81.0005C100.154 81.0005 94.8402 78.7709 91.7996 75.4058C88.7589 78.7706 83.446 81.0004 77.4001 81.0005C71.3537 81.0005 66.0404 78.7702 62.9998 75.4048C59.9592 78.77 54.6465 81.0004 48.6003 81.0005C41.8017 81.0005 35.9298 78.1808 33.1736 74.0981C33.0135 74.0557 32.8543 74.0111 32.696 73.9644C30.4672 76.1004 27.5253 77.3999 24.2996 77.3999C17.341 77.3997 11.7 71.3556 11.7 63.8999C11.7 60.9926 12.5601 58.3015 14.0193 56.0981C9.96873 53.8533 7.19995 49.3233 7.19995 44.1001C7.19999 38.2197 10.7093 33.2181 15.6062 31.3667C13.2011 28.9082 11.7 25.4429 11.7 21.6001C11.7 14.1444 17.341 8.10032 24.2996 8.1001C27.4809 8.1001 30.3868 9.3639 32.6042 11.4478C35.0493 6.86132 41.2886 3.6001 48.6003 3.6001C54.6462 3.60019 59.9591 5.82987 62.9998 9.19482C66.0404 5.82969 71.354 3.6001 77.4001 3.6001C83.4457 3.60015 88.7588 5.82921 91.7996 9.19385C94.8403 5.82896 100.154 3.6001 106.2 3.6001C112.246 3.6001 117.559 5.82923 120.599 9.19385C123.64 5.82894 128.954 3.60015 135 3.6001C141.046 3.6001 146.359 5.82969 149.4 9.19482C152.441 5.82987 157.754 3.60019 163.8 3.6001Z" fill="#F8FAFD"/>
</g>
<path d="M40.5999 50.8901L41.7199 46.7001H37.7999L38.2499 45.0001H42.1799L42.9499 42.0801H39.0299L39.4899 40.3901H43.4099L44.4499 36.5001H46.2099L45.1599 40.3901H48.2099L49.2499 36.5001H51.0099L49.9599 40.3901H53.8799L53.4299 42.0801H49.5099L48.7199 45.0001H52.6399L52.1899 46.7001H48.2699L47.1499 50.8901H45.3999L46.5099 46.7001H43.4699L42.3499 50.8901H40.5999ZM43.9299 45.0001H46.9699L47.7499 42.0801H44.7099L43.9299 45.0001ZM59.0764 51.1901C58.0697 51.1901 57.2164 50.9168 56.5164 50.3701C55.8164 49.8235 55.3364 49.0901 55.0764 48.1701L56.8464 47.7501C56.9531 48.2368 57.2097 48.6501 57.6164 48.9901C58.0297 49.3301 58.5031 49.5001 59.0364 49.5001C59.3831 49.5001 59.7364 49.4168 60.0964 49.2501C60.4564 49.0768 60.7331 48.7968 60.9264 48.4101C61.0597 48.1435 61.1364 47.8501 61.1564 47.5301C61.1764 47.2035 61.1864 46.8201 61.1864 46.3801V36.5001H62.9864V46.3801C62.9864 46.7935 62.9831 47.1635 62.9764 47.4901C62.9764 47.8168 62.9431 48.1301 62.8764 48.4301C62.8164 48.7235 62.6964 49.0235 62.5164 49.3301C62.1564 49.9635 61.6731 50.4335 61.0664 50.7401C60.4664 51.0401 59.8031 51.1901 59.0764 51.1901ZM70.0881 51.1801C69.3948 51.1801 68.7981 51.0701 68.2981 50.8501C67.8048 50.6301 67.3948 50.3368 67.0681 49.9701C66.7415 49.6035 66.4848 49.1968 66.2981 48.7501C66.1115 48.3035 65.9781 47.8468 65.8981 47.3801C65.8248 46.9135 65.7881 46.4768 65.7881 46.0701V40.1001H67.5881V45.5101C67.5881 46.0168 67.6348 46.5068 67.7281 46.9801C67.8215 47.4535 67.9781 47.8801 68.1981 48.2601C68.4248 48.6401 68.7248 48.9401 69.0981 49.1601C69.4781 49.3801 69.9515 49.4901 70.5181 49.4901C70.9648 49.4901 71.3715 49.4135 71.7381 49.2601C72.1048 49.1068 72.4181 48.8801 72.6781 48.5801C72.9381 48.2735 73.1381 47.8868 73.2781 47.4201C73.4181 46.9535 73.4881 46.4101 73.4881 45.7901L74.6581 46.1501C74.6581 47.1901 74.4681 48.0868 74.0881 48.8401C73.7148 49.5935 73.1848 50.1735 72.4981 50.5801C71.8181 50.9801 71.0148 51.1801 70.0881 51.1801ZM73.6881 50.9001V48.0101H73.4881V40.1001H75.2781V50.9001H73.6881ZM82.158 51.1901C80.8713 51.1901 79.8146 50.9101 78.988 50.3501C78.168 49.7835 77.6646 48.9935 77.478 47.9801L79.298 47.6901C79.4446 48.2768 79.7813 48.7435 80.308 49.0901C80.8346 49.4301 81.488 49.6001 82.268 49.6001C83.008 49.6001 83.588 49.4468 84.008 49.1401C84.428 48.8335 84.638 48.4168 84.638 47.8901C84.638 47.5835 84.568 47.3368 84.428 47.1501C84.288 46.9568 83.998 46.7768 83.558 46.6101C83.1246 46.4435 82.468 46.2435 81.588 46.0101C80.6346 45.7568 79.8846 45.4935 79.338 45.2201C78.7913 44.9468 78.4013 44.6301 78.168 44.2701C77.9346 43.9101 77.818 43.4735 77.818 42.9601C77.818 42.3268 77.9913 41.7735 78.338 41.3001C78.6846 40.8201 79.168 40.4501 79.788 40.1901C80.4146 39.9301 81.1413 39.8001 81.968 39.8001C82.788 39.8001 83.5213 39.9301 84.168 40.1901C84.8146 40.4501 85.3346 40.8201 85.728 41.3001C86.128 41.7735 86.3646 42.3268 86.438 42.9601L84.618 43.2901C84.5313 42.7101 84.2513 42.2535 83.778 41.9201C83.3113 41.5868 82.708 41.4101 81.968 41.3901C81.268 41.3635 80.698 41.4868 80.258 41.7601C79.8246 42.0335 79.608 42.4035 79.608 42.8701C79.608 43.1301 79.688 43.3535 79.848 43.5401C80.0146 43.7268 80.318 43.9035 80.758 44.0701C81.2046 44.2368 81.8513 44.4268 82.698 44.6401C83.6513 44.8801 84.4013 45.1435 84.948 45.4301C85.5013 45.7101 85.8946 46.0435 86.128 46.4301C86.3613 46.8101 86.478 47.2801 86.478 47.8401C86.478 48.8801 86.0946 49.7001 85.328 50.3001C84.5613 50.8935 83.5046 51.1901 82.158 51.1901ZM94.7134 50.9001C94.0734 51.0268 93.4401 51.0768 92.8134 51.0501C92.1934 51.0301 91.6401 50.9068 91.1534 50.6801C90.6668 50.4468 90.2968 50.0868 90.0434 49.6001C89.8301 49.1735 89.7134 48.7435 89.6934 48.3101C89.6801 47.8701 89.6734 47.3735 89.6734 46.8201V37.1001H91.4534V46.7401C91.4534 47.1801 91.4568 47.5568 91.4634 47.8701C91.4768 48.1835 91.5468 48.4535 91.6734 48.6801C91.9134 49.1068 92.2934 49.3568 92.8134 49.4301C93.3401 49.5035 93.9734 49.4835 94.7134 49.3701V50.9001ZM87.4834 41.5701V40.1001H94.7134V41.5701H87.4834ZM101.94 50.9001V39.5101C101.94 39.2301 101.953 38.9468 101.98 38.6601C102.007 38.3668 102.067 38.0835 102.16 37.8101C102.253 37.5301 102.407 37.2735 102.62 37.0401C102.867 36.7668 103.137 36.5735 103.43 36.4601C103.723 36.3401 104.02 36.2668 104.32 36.2401C104.627 36.2135 104.917 36.2001 105.19 36.2001H106.56V37.6801H105.29C104.763 37.6801 104.37 37.8101 104.11 38.0701C103.85 38.3235 103.72 38.7101 103.72 39.2301V50.9001H101.94ZM100.11 41.5701V40.1001H106.56V41.5701H100.11ZM112.365 51.2001C111.292 51.2001 110.365 50.9568 109.585 50.4701C108.812 49.9835 108.215 49.3101 107.795 48.4501C107.375 47.5901 107.165 46.6035 107.165 45.4901C107.165 44.3568 107.379 43.3635 107.805 42.5101C108.232 41.6568 108.835 40.9935 109.615 40.5201C110.395 40.0401 111.312 39.8001 112.365 39.8001C113.445 39.8001 114.375 40.0435 115.155 40.5301C115.935 41.0101 116.532 41.6801 116.945 42.5401C117.365 43.3935 117.575 44.3768 117.575 45.4901C117.575 46.6168 117.365 47.6101 116.945 48.4701C116.525 49.3235 115.925 49.9935 115.145 50.4801C114.365 50.9601 113.439 51.2001 112.365 51.2001ZM112.365 49.5101C113.485 49.5101 114.319 49.1368 114.865 48.3901C115.412 47.6435 115.685 46.6768 115.685 45.4901C115.685 44.2701 115.409 43.3001 114.855 42.5801C114.302 41.8535 113.472 41.4901 112.365 41.4901C111.612 41.4901 110.992 41.6601 110.505 42.0001C110.019 42.3401 109.655 42.8101 109.415 43.4101C109.175 44.0101 109.055 44.7035 109.055 45.4901C109.055 46.7035 109.335 47.6768 109.895 48.4101C110.455 49.1435 111.279 49.5101 112.365 49.5101ZM119.777 50.9001V40.1001H121.367V42.7101L121.107 42.3701C121.234 42.0368 121.397 41.7301 121.597 41.4501C121.804 41.1701 122.034 40.9401 122.287 40.7601C122.567 40.5335 122.884 40.3601 123.237 40.2401C123.591 40.1201 123.951 40.0501 124.317 40.0301C124.684 40.0035 125.027 40.0268 125.347 40.1001V41.7701C124.974 41.6701 124.564 41.6435 124.117 41.6901C123.671 41.7368 123.257 41.9001 122.877 42.1801C122.531 42.4268 122.261 42.7268 122.067 43.0801C121.881 43.4335 121.751 43.8168 121.677 44.2301C121.604 44.6368 121.567 45.0535 121.567 45.4801V50.9001H119.777ZM132.272 50.9001V39.5101C132.272 39.2301 132.285 38.9468 132.312 38.6601C132.339 38.3668 132.399 38.0835 132.492 37.8101C132.585 37.5301 132.739 37.2735 132.952 37.0401C133.199 36.7668 133.469 36.5735 133.762 36.4601C134.055 36.3401 134.352 36.2668 134.652 36.2401C134.959 36.2135 135.249 36.2001 135.522 36.2001H136.892V37.6801H135.622C135.095 37.6801 134.702 37.8101 134.442 38.0701C134.182 38.3235 134.052 38.7101 134.052 39.2301V50.9001H132.272ZM130.442 41.5701V40.1001H136.892V41.5701H130.442ZM142.588 51.1801C141.895 51.1801 141.298 51.0701 140.798 50.8501C140.305 50.6301 139.895 50.3368 139.568 49.9701C139.241 49.6035 138.985 49.1968 138.798 48.7501C138.611 48.3035 138.478 47.8468 138.398 47.3801C138.325 46.9135 138.288 46.4768 138.288 46.0701V40.1001H140.088V45.5101C140.088 46.0168 140.135 46.5068 140.228 46.9801C140.321 47.4535 140.478 47.8801 140.698 48.2601C140.925 48.6401 141.225 48.9401 141.598 49.1601C141.978 49.3801 142.451 49.4901 143.018 49.4901C143.465 49.4901 143.871 49.4135 144.238 49.2601C144.605 49.1068 144.918 48.8801 145.178 48.5801C145.438 48.2735 145.638 47.8868 145.778 47.4201C145.918 46.9535 145.988 46.4101 145.988 45.7901L147.158 46.1501C147.158 47.1901 146.968 48.0868 146.588 48.8401C146.215 49.5935 145.685 50.1735 144.998 50.5801C144.318 50.9801 143.515 51.1801 142.588 51.1801ZM146.188 50.9001V48.0101H145.988V40.1001H147.778V50.9001H146.188ZM158.268 50.9001V45.4901C158.268 44.9768 158.221 44.4835 158.128 44.0101C158.041 43.5368 157.885 43.1135 157.658 42.7401C157.438 42.3601 157.138 42.0601 156.758 41.8401C156.385 41.6201 155.911 41.5101 155.338 41.5101C154.891 41.5101 154.485 41.5868 154.118 41.7401C153.758 41.8868 153.448 42.1135 153.188 42.4201C152.928 42.7268 152.725 43.1135 152.578 43.5801C152.438 44.0401 152.368 44.5835 152.368 45.2101L151.198 44.8501C151.198 43.8035 151.385 42.9068 151.758 42.1601C152.138 41.4068 152.668 40.8301 153.348 40.4301C154.035 40.0235 154.841 39.8201 155.768 39.8201C156.468 39.8201 157.065 39.9301 157.558 40.1501C158.051 40.3701 158.461 40.6635 158.788 41.0301C159.115 41.3901 159.371 41.7968 159.558 42.2501C159.745 42.6968 159.875 43.1535 159.948 43.6201C160.028 44.0801 160.068 44.5168 160.068 44.9301V50.9001H158.268ZM150.568 50.9001V40.1001H152.168V42.9901H152.368V50.9001H150.568ZM163.668 50.9001V49.0601H165.448V50.9001H163.668ZM163.668 47.3001V36.5001H165.448V47.3001H163.668Z" fill="black"/>
<defs>
<filter id="filter0_d_238_71" x="-4.86374e-05" y="9.77516e-05" width="230.4" height="105.3" filterUnits="userSpaceOnUse" color-interpolation-filters="sRGB">
<feFlood flood-opacity="0" result="BackgroundImageFix"/>
<feColorMatrix in="SourceAlpha" type="matrix" values="0 0 0 0 0 0 0 0 0 0 0 0 0 0 0 0 0 0 127 0" result="hardAlpha"/>
<feOffset dy="3.6"/>
<feGaussianBlur stdDeviation="3.6"/>
<feComposite in2="hardAlpha" operator="out"/>
<feColorMatrix type="matrix" values="0 0 0 0 0.145246 0 0 0 0 0.370876 0 0 0 0 0.568303 0 0 0 0.4 0"/>
<feBlend mode="normal" in2="BackgroundImageFix" result="effect1_dropShadow_238_71"/>
<feBlend mode="normal" in="SourceGraphic" in2="effect1_dropShadow_238_71" result="shape"/>
</filter>
</defs>
</svg>
