<svg width="189" height="75" viewBox="0 0 189 75" fill="none" xmlns="http://www.w3.org/2000/svg">
<path d="M4.05127 57.0679C7.41941 58.0631 14.6303 61.0331 25.4084 53.6232M25.4084 53.6232C43.8566 36.4756 34.8811 16.5 25.4084 16.5C15.9357 16.5 6.65393 36.0163 25.4084 53.6232ZM25.4084 53.6232C30.4351 56.6596 35.5893 60.1299 45.8469 57.0679" stroke="url(#paint0_linear_238_55)" stroke-width="8.1" stroke-linecap="round"/>
<path d="M4.05127 57.0679C7.41941 58.0631 14.6303 61.0331 25.4084 53.6232C43.8566 36.4756 34.8811 16.5 25.4084 16.5" stroke="url(#paint1_linear_238_55)" stroke-width="8.1" stroke-linecap="round"/>
<path d="M61.1475 59V19.3497H67.7834V52.7771H85.2956V59H61.1475ZM103.094 59.826C100.121 59.826 97.5231 59.156 95.302 57.816C93.0808 56.476 91.3553 54.6311 90.1254 52.2815C88.9139 49.9135 88.3081 47.1967 88.3081 44.1312C88.3081 41.0105 88.9323 38.2754 90.1805 35.9257C91.4288 33.5761 93.1635 31.7404 95.3846 30.4188C97.6057 29.0971 100.176 28.4363 103.094 28.4363C106.087 28.4363 108.693 29.1063 110.914 30.4463C113.135 31.7863 114.861 33.6404 116.091 36.0084C117.321 38.358 117.936 41.0656 117.936 44.1312C117.936 47.2151 117.312 49.941 116.063 52.309C114.833 54.6587 113.108 56.5035 110.887 57.8435C108.666 59.1652 106.068 59.826 103.094 59.826ZM103.094 53.6032C105.738 53.6032 107.702 52.722 108.987 50.9598C110.272 49.1976 110.914 46.9214 110.914 44.1312C110.914 41.2492 110.263 38.9546 108.959 37.2474C107.656 35.5219 105.701 34.6591 103.094 34.6591C101.314 34.6591 99.8453 35.063 98.6888 35.8707C97.5507 36.66 96.7063 37.7706 96.1556 39.2024C95.6049 40.6159 95.3295 42.2588 95.3295 44.1312C95.3295 47.0131 95.9812 49.3169 97.2845 51.0424C98.6062 52.7496 100.543 53.6032 103.094 53.6032ZM137.137 59.826C134.163 59.826 131.565 59.156 129.344 57.816C127.123 56.476 125.398 54.6311 124.168 52.2815C122.956 49.9135 122.35 47.1967 122.35 44.1312C122.35 41.0105 122.974 38.2754 124.223 35.9257C125.471 33.5761 127.206 31.7404 129.427 30.4188C131.648 29.0971 134.218 28.4363 137.137 28.4363C140.129 28.4363 142.735 29.1063 144.956 30.4463C147.178 31.7863 148.903 33.6404 150.133 36.0084C151.363 38.358 151.978 41.0656 151.978 44.1312C151.978 47.2151 151.354 49.941 150.105 52.309C148.876 54.6587 147.15 56.5035 144.929 57.8435C142.708 59.1652 140.11 59.826 137.137 59.826ZM137.137 53.6032C139.78 53.6032 141.744 52.722 143.029 50.9598C144.314 49.1976 144.956 46.9214 144.956 44.1312C144.956 41.2492 144.305 38.9546 143.001 37.2474C141.698 35.5219 139.743 34.6591 137.137 34.6591C135.356 34.6591 133.887 35.063 132.731 35.8707C131.593 36.66 130.748 37.7706 130.198 39.2024C129.647 40.6159 129.372 42.2588 129.372 44.1312C129.372 47.0131 130.023 49.3169 131.327 51.0424C132.648 52.7496 134.585 53.6032 137.137 53.6032ZM172.335 59.826C169.435 59.826 167.003 59.1377 165.038 57.7609C163.074 56.3842 161.597 54.5118 160.605 52.1438C159.614 49.7575 159.118 47.0866 159.118 44.1312C159.118 41.139 159.614 38.459 160.605 36.091C161.597 33.723 163.047 31.8598 164.956 30.5014C166.883 29.1246 169.26 28.4363 172.087 28.4363C174.896 28.4363 177.328 29.1246 179.384 30.5014C181.458 31.8598 183.065 33.723 184.203 36.091C185.341 38.4406 185.91 41.1207 185.91 44.1312C185.91 47.1049 185.35 49.7758 184.23 52.1438C183.111 54.5118 181.532 56.3842 179.494 57.7609C177.457 59.1377 175.07 59.826 172.335 59.826ZM157.99 72.2168V29.2623H163.854V50.1338H164.68V72.2168H157.99ZM171.316 53.8785C173.042 53.8785 174.465 53.4471 175.584 52.5844C176.704 51.7216 177.53 50.556 178.062 49.0874C178.613 47.6005 178.888 45.9485 178.888 44.1312C178.888 42.3322 178.613 40.6985 178.062 39.2299C177.512 37.7431 176.658 36.5682 175.502 35.7055C174.345 34.8244 172.877 34.3838 171.096 34.3838C169.407 34.3838 168.031 34.7968 166.966 35.6229C165.901 36.4306 165.112 37.5687 164.598 39.0372C164.102 40.4874 163.854 42.1854 163.854 44.1312C163.854 46.0586 164.102 47.7566 164.598 49.2251C165.112 50.6936 165.91 51.8409 166.993 52.667C168.095 53.4747 169.536 53.8785 171.316 53.8785Z" fill="black"/>
<defs>
<linearGradient id="paint0_linear_238_55" x1="24.9491" y1="16.5" x2="24.9491" y2="58.5" gradientUnits="userSpaceOnUse">
<stop stop-color="#FF8034"/>
<stop offset="1" stop-color="#F37428"/>
</linearGradient>
<linearGradient id="paint1_linear_238_55" x1="33.0938" y1="17.8404" x2="17.0087" y2="58.5" gradientUnits="userSpaceOnUse">
<stop offset="0.350962" stop-color="#FB7D32"/>
<stop offset="1" stop-color="#FFB744"/>
</linearGradient>
</defs>
</svg>
