<svg width="131" height="126" viewBox="0 0 131 126" fill="none" xmlns="http://www.w3.org/2000/svg">
<path d="M15.0257 77.4706C14.9282 77.4952 14.6616 77.7423 13.155 80.3981C11.8012 82.7844 9.50731 87.4206 8.14496 89.9703C6.7826 92.5201 6.48679 92.879 6.15629 93.189C5.82579 93.4989 5.46956 93.749 5.10254 94.0066" stroke="#313131" stroke-width="3.39214" stroke-linecap="round"/>
<path d="M109.405 76.5681C109.392 76.5478 109.796 76.7328 111.003 77.568C111.8 78.2078 112.971 79.286 115.534 82.0808C118.097 84.8756 122.018 89.3542 126.057 93.9686" stroke="#313131" stroke-width="3.39214" stroke-linecap="round"/>
<path d="M43.1025 90.6754C43.0726 90.6648 43.0427 90.6542 42.9561 94.5809C42.8695 98.5076 37.1112 98.1564 36.9241 102.205C36.7371 106.254 42.1256 114.464 41.3451 114.243C37.4993 113.157 36.1317 112.991 35.073 113.084C34.6748 113.119 34.6017 113.382 34.7536 113.586C35.9973 114.276 37.3508 114.449 38.537 114.403C38.979 114.328 39.0962 114.148 39.2636 113.852" stroke="#313131" stroke-width="3.39214" stroke-linecap="round"/>
<path d="M79.1926 93.2423C79.1862 93.2327 79.1798 93.2231 79.5168 95.6917C79.8539 98.1603 72.8154 102.518 73.3583 106.253C73.9012 109.988 83.4477 116.132 83.7038 117.519C84.124 119.794 82.9973 117.185 82.9713 117.519C82.9024 118.407 80.1927 117.616 78.2853 118.08C77.9257 118.168 77.788 118.411 77.6837 118.62C77.5795 118.829 77.5381 119.068 77.6076 119.287C77.7531 119.745 78.4073 119.982 79.0973 120.11C80.1749 120.311 81.1954 119.686 82.0822 119.075C82.2597 118.914 82.4129 118.746 82.5186 118.567C82.6243 118.388 82.6779 118.205 82.767 117.965" stroke="#313131" stroke-width="3.39214" stroke-linecap="round"/>
<g filter="url(#filter0_d_238_93)">
<path d="M112.129 83.1536C110.39 97.3108 97.5047 107.378 83.3475 105.64L35.9549 99.8209C21.7978 98.0826 11.7304 85.1968 13.4686 71.0397C15.2069 56.8826 28.0927 46.8151 42.2498 48.5534L89.6424 54.3725C103.8 56.1108 113.867 68.9965 112.129 83.1536Z" fill="#EB7128"/>
<path d="M117.692 37.8475C115.953 52.0046 113.571 75.8461 99.4139 74.1078L28.8886 65.0521C14.7315 63.3138 17.2933 39.8907 19.0315 25.7336C20.4299 14.3451 29.0419 5.60311 39.7265 3.52429C45.0094 2.49643 50.298 4.40309 55.1781 6.67255C64.6834 11.093 75.312 12.5049 85.6417 10.7194L87.0498 10.476C92.4574 9.54132 98.1641 9.00683 103.123 11.3568C112.907 15.9928 119.083 26.5127 117.692 37.8475Z" fill="#EB7128"/>
<rect x="39.9387" y="37.7844" width="19.9658" height="26.8197" rx="9.9829" transform="rotate(7 39.9387 37.7844)" fill="white"/>
<rect x="41.9944" y="47.7791" width="11.5358" height="15.7656" rx="5.76791" transform="rotate(7 41.9944 47.7791)" fill="#3D3D3D"/>
<rect x="72.7705" y="41.8157" width="19.9658" height="26.8197" rx="9.9829" transform="rotate(7 72.7705 41.8157)" fill="white"/>
<path d="M57.2373 72.9532C60.1315 76.0235 66.881 79.8689 70.7258 70.6878" stroke="#3D3D3D" stroke-width="2.97997" stroke-linecap="round"/>
<rect x="74.2188" y="51.5608" width="11.5358" height="15.7656" rx="5.76791" transform="rotate(7 74.2188 51.5608)" fill="#3D3D3D"/>
</g>
<defs>
<filter id="filter0_d_238_93" x="6.79627" y="-5.76973e-05" width="117.568" height="115.551" filterUnits="userSpaceOnUse" color-interpolation-filters="sRGB">
<feFlood flood-opacity="0" result="BackgroundImageFix"/>
<feColorMatrix in="SourceAlpha" type="matrix" values="0 0 0 0 0 0 0 0 0 0 0 0 0 0 0 0 0 0 127 0" result="hardAlpha"/>
<feOffset dy="3.23858"/>
<feGaussianBlur stdDeviation="3.23858"/>
<feComposite in2="hardAlpha" operator="out"/>
<feColorMatrix type="matrix" values="0 0 0 0 0.145246 0 0 0 0 0.370876 0 0 0 0 0.568303 0 0 0 0.4 0"/>
<feBlend mode="normal" in2="BackgroundImageFix" result="effect1_dropShadow_238_93"/>
<feBlend mode="normal" in="SourceGraphic" in2="effect1_dropShadow_238_93" result="shape"/>
</filter>
</defs>
</svg>
