<svg width="462" height="345" viewBox="0 0 462 345" fill="none" xmlns="http://www.w3.org/2000/svg">
<g filter="url(#filter0_d_238_92)">
<path d="M454.2 33.7561C454.2 35.8505 452.5 37.5136 450.467 38.0173C442.865 39.9008 437.214 46.9731 437.214 55.4108C437.214 63.8486 442.865 70.9209 450.467 72.8044C452.5 73.3081 454.2 74.9712 454.2 77.0656V90.3277C454.2 92.4221 452.5 94.0852 450.467 94.5889C442.865 96.4723 437.214 103.545 437.214 111.982C437.214 120.42 442.865 127.492 450.467 129.375C452.5 129.879 454.2 131.542 454.2 133.636V146.899C454.2 148.994 452.5 150.657 450.467 151.161C442.865 153.044 437.214 160.116 437.214 168.554C437.214 176.992 442.865 184.063 450.467 185.947C452.5 186.45 454.2 188.114 454.2 190.208V203.47C454.2 205.564 452.5 207.228 450.467 207.731C442.865 209.615 437.214 216.688 437.214 225.126C437.214 233.563 442.865 240.635 450.467 242.518C452.5 243.022 454.2 244.685 454.2 246.78V260.042C454.2 262.136 452.5 263.799 450.467 264.303C442.865 266.186 437.214 273.259 437.214 281.696C437.214 290.134 442.865 297.206 450.467 299.09C452.5 299.594 454.2 301.257 454.2 303.351V329.758C454.2 331.88 452.48 333.6 450.358 333.6H415.463C413.367 333.6 411.699 331.901 411.239 329.856C409.459 321.937 402.592 316.037 394.391 316.037C386.191 316.037 379.324 321.937 377.543 329.856C377.083 331.901 375.415 333.6 373.319 333.6H360.75C358.654 333.6 356.986 331.901 356.527 329.856C354.746 321.937 347.879 316.037 339.678 316.037C331.478 316.037 324.611 321.937 322.83 329.856C322.37 331.901 320.702 333.6 318.606 333.6H306.038C303.941 333.6 302.274 331.901 301.814 329.856C300.033 321.937 293.166 316.037 284.966 316.037C276.765 316.037 269.898 321.937 268.117 329.856C267.657 331.901 265.99 333.6 263.894 333.6H251.325C249.228 333.6 247.561 331.901 247.101 329.856C245.32 321.937 238.453 316.037 230.253 316.037C222.052 316.037 215.185 321.937 213.404 329.856C212.944 331.901 211.277 333.6 209.181 333.6H196.612C194.516 333.6 192.848 331.901 192.388 329.856C190.607 321.937 183.74 316.037 175.54 316.037C167.34 316.037 160.473 321.937 158.691 329.856C158.232 331.901 156.564 333.6 154.468 333.6H141.899C139.803 333.6 138.135 331.901 137.675 329.856C135.895 321.937 129.028 316.037 120.827 316.037C112.627 316.037 105.76 321.937 103.979 329.856C103.519 331.901 101.851 333.6 99.7553 333.6H87.1858C85.0896 333.6 83.4225 331.901 82.9625 329.856C81.1815 321.937 74.3145 316.037 66.114 316.037C57.9137 316.037 51.0466 321.937 49.2655 329.856C48.8056 331.901 47.1385 333.6 45.0423 333.6H11.042C8.92008 333.6 7.19995 331.88 7.19995 329.758V299.059C7.19995 298.888 7.3408 298.751 7.5125 298.751C17.0664 298.751 24.8119 290.743 24.8119 280.865C24.8119 270.987 17.0664 262.979 7.5125 262.979C7.34081 262.979 7.19995 262.842 7.19995 262.67V242.488C7.19995 242.316 7.3408 242.18 7.5125 242.18C17.0664 242.18 24.8119 234.172 24.8119 224.293C24.8119 214.415 17.0664 206.407 7.5125 206.407C7.34081 206.407 7.19995 206.27 7.19995 206.098V185.917C7.19995 185.745 7.3408 185.609 7.5125 185.609C17.0664 185.609 24.8119 177.6 24.8119 167.722C24.8119 157.843 17.0664 149.836 7.5125 149.836C7.34081 149.836 7.19995 149.698 7.19995 149.527V129.345C7.19995 129.174 7.3408 129.037 7.5125 129.037C17.0664 129.037 24.8119 121.029 24.8119 111.15C24.8117 101.272 17.0663 93.264 7.5125 93.264C7.34081 93.264 7.19995 93.1267 7.19995 92.955V72.7737C7.19995 72.602 7.3408 72.4656 7.5125 72.4656C17.0663 72.4656 24.8118 64.4578 24.8119 54.5795C24.8119 44.701 17.0664 36.6924 7.5125 36.6924C7.34081 36.6924 7.19995 36.5551 7.19995 36.3834V7.44212C7.19995 5.32023 8.92008 3.6001 11.042 3.6001H48.8982C49.0758 3.6001 49.218 3.74568 49.218 3.92327C49.218 13.8016 56.9627 21.8102 66.5165 21.8104C76.0704 21.8104 83.8159 13.8017 83.8159 3.92327C83.8159 3.74567 83.9572 3.6001 84.1348 3.6001H103.611C103.789 3.6001 103.931 3.74568 103.931 3.92327C103.931 13.8016 111.676 21.8102 121.229 21.8104C130.783 21.8104 138.529 13.8017 138.529 3.92327C138.529 3.74567 138.67 3.6001 138.848 3.6001H158.324C158.502 3.6001 158.644 3.74568 158.644 3.92327C158.644 13.8016 166.389 21.8102 175.942 21.8104C185.496 21.8104 193.242 13.8017 193.242 3.92327C193.242 3.74567 193.383 3.6001 193.561 3.6001H213.037C213.215 3.6001 213.356 3.74567 213.356 3.92327C213.356 13.8017 221.102 21.8104 230.655 21.8104C240.209 21.8103 247.954 13.8017 247.954 3.92327C247.954 3.74568 248.096 3.6001 248.274 3.6001H267.75C267.928 3.6001 268.07 3.74568 268.07 3.92327C268.07 13.8017 275.814 21.8104 285.368 21.8104C294.922 21.8103 302.667 13.8017 302.667 3.92327C302.667 3.74568 302.809 3.6001 302.987 3.6001H322.462C322.64 3.6001 322.782 3.74568 322.782 3.92327C322.782 13.8016 330.527 21.8102 340.08 21.8104C349.634 21.8104 357.38 13.8017 357.38 3.92327C357.38 3.74567 357.521 3.6001 357.699 3.6001H377.175C377.353 3.6001 377.495 3.74568 377.495 3.92327C377.495 13.8016 385.24 21.8102 394.793 21.8104C404.347 21.8104 412.093 13.8017 412.093 3.92327C412.093 3.74567 412.234 3.6001 412.412 3.6001H450.358C452.48 3.6001 454.2 5.32023 454.2 7.44211V33.7561Z" fill="#F8FAFD"/>
</g>
<defs>
<filter id="filter0_d_238_92" x="-4.86374e-05" y="9.77516e-05" width="461.4" height="344.4" filterUnits="userSpaceOnUse" color-interpolation-filters="sRGB">
<feFlood flood-opacity="0" result="BackgroundImageFix"/>
<feColorMatrix in="SourceAlpha" type="matrix" values="0 0 0 0 0 0 0 0 0 0 0 0 0 0 0 0 0 0 127 0" result="hardAlpha"/>
<feOffset dy="3.6"/>
<feGaussianBlur stdDeviation="3.6"/>
<feComposite in2="hardAlpha" operator="out"/>
<feColorMatrix type="matrix" values="0 0 0 0 0.145246 0 0 0 0 0.370876 0 0 0 0 0.568303 0 0 0 0.6 0"/>
<feBlend mode="normal" in2="BackgroundImageFix" result="effect1_dropShadow_238_92"/>
<feBlend mode="normal" in="SourceGraphic" in2="effect1_dropShadow_238_92" result="shape"/>
</filter>
</defs>
</svg>
